<mxfile host="app.diagrams.net" modified="2023-08-14T21:20:03.709Z" agent="Mozilla/5.0 (Windows NT 10.0; Win64; x64) AppleWebKit/537.36 (KHTML, like Gecko) Chrome/115.0.0.0 Safari/537.36 Edg/115.0.1901.200" version="21.6.8" etag="0kMO_5V8XqBmb6JBFkNv" type="github">
  <diagram name="Страница — 1" id="3fayY41sMjeuoZ969pIJ">
    <mxGraphModel>
      <root>
        <mxCell id="0" />
        <mxCell id="1" parent="0" />
      </root>
    </mxGraphModel>
  </diagram>
</mxfile>
